<?xml version="1.0" encoding="iso-8859-1"?>
<!-- Generator: Adobe Illustrator 19.1.0, SVG Export Plug-In . SVG Version: 6.00 Build 0)  -->
<svg width="32"
	version="1.1" id="Capa_1" xmlns="http://www.w3.org/2000/svg" xmlns:xlink="http://www.w3.org/1999/xlink" x="0px" y="0px"
	 viewBox="0 0 513.236 513.236" style="enable-background:new 0 0 513.236 513.236;" xml:space="preserve">
<path d="M486.604,26.446C469.605,9.447,446.924,0,422.799,0c-24.147,0-46.828,9.447-63.828,26.446L27.727,357.691
	c-1.691,1.871-2.931,4.194-3.359,6.516L0.446,498.964c-0.857,3.991,0.428,7.981,3.359,10.709c2.322,2.322,5.456,3.562,8.613,3.562
	c0.631,0,1.465,0,2.097-0.203l134.554-23.944c2.525-0.428,4.825-1.668,6.516-3.337l331.02-331.471
	c17.225-17,26.446-39.681,26.446-63.828S503.83,43.672,486.604,26.446z M43.171,398.748l71.403,71.606l-87.05,15.602L43.171,398.748
	z M142.283,464.401c-0.519-0.992-1.015-1.984-1.826-2.796l-88.38-88.583c-0.857-0.857-1.894-1.398-2.886-1.939L349.615,70.253
	c0.564,1.037,1.105,2.119,2.007,2.999l88.358,88.583c0.812,0.812,1.804,1.308,2.796,1.871L142.283,464.401z M469.379,137.079
	l-10.236,10.258c-0.541-1.015-1.082-2.029-1.939-2.886l-88.358-88.38c-0.902-0.902-1.961-1.443-3.021-2.007l10.349-10.371
	c12.4-12.378,28.972-19.299,46.602-19.299s34.225,6.922,46.58,19.299c12.603,12.603,19.299,29.174,19.299,46.805
	C488.701,108.108,481.983,124.679,469.379,137.079z"/>
</svg>
